<mxfile host="app.diagrams.net" modified="2021-12-29T07:55:10.349Z" agent="5.0 (Macintosh; Intel Mac OS X 10_15_7) AppleWebKit/537.36 (KHTML, like Gecko) Chrome/96.0.4664.110 Safari/537.36 Edg/96.0.1054.62" etag="I53fpGIjnO9yTqHjoON0" version="16.0.3" type="github">
  <diagram id="ZB0FOyPixN7WyEiz6lQO" name="Page-1">
    <mxGraphModel dx="2228" dy="746" grid="1" gridSize="10" guides="1" tooltips="1" connect="1" arrows="1" fold="1" page="1" pageScale="1" pageWidth="850" pageHeight="1100" math="0" shadow="0">
      <root>
        <mxCell id="0" />
        <mxCell id="1" parent="0" />
        <mxCell id="ID6AHChrOmCax6VTV1ZO-7" style="edgeStyle=orthogonalEdgeStyle;rounded=0;orthogonalLoop=1;jettySize=auto;html=1;entryX=0.5;entryY=0;entryDx=0;entryDy=0;" edge="1" parent="1" source="ID6AHChrOmCax6VTV1ZO-1" target="ID6AHChrOmCax6VTV1ZO-4">
          <mxGeometry relative="1" as="geometry">
            <Array as="points">
              <mxPoint x="450" y="340" />
              <mxPoint x="-80" y="340" />
            </Array>
          </mxGeometry>
        </mxCell>
        <mxCell id="ID6AHChrOmCax6VTV1ZO-8" style="edgeStyle=orthogonalEdgeStyle;rounded=0;orthogonalLoop=1;jettySize=auto;html=1;exitX=0.5;exitY=1;exitDx=0;exitDy=0;entryX=0.5;entryY=0;entryDx=0;entryDy=0;" edge="1" parent="1" source="ID6AHChrOmCax6VTV1ZO-1" target="ID6AHChrOmCax6VTV1ZO-5">
          <mxGeometry relative="1" as="geometry">
            <Array as="points">
              <mxPoint x="450" y="340" />
              <mxPoint x="80" y="340" />
            </Array>
          </mxGeometry>
        </mxCell>
        <mxCell id="ID6AHChrOmCax6VTV1ZO-9" style="edgeStyle=orthogonalEdgeStyle;rounded=0;orthogonalLoop=1;jettySize=auto;html=1;" edge="1" parent="1" source="ID6AHChrOmCax6VTV1ZO-1" target="ID6AHChrOmCax6VTV1ZO-6">
          <mxGeometry relative="1" as="geometry">
            <Array as="points">
              <mxPoint x="450" y="340" />
              <mxPoint x="230" y="340" />
            </Array>
          </mxGeometry>
        </mxCell>
        <mxCell id="ID6AHChrOmCax6VTV1ZO-15" style="edgeStyle=orthogonalEdgeStyle;rounded=0;orthogonalLoop=1;jettySize=auto;html=1;" edge="1" parent="1" source="ID6AHChrOmCax6VTV1ZO-1" target="ID6AHChrOmCax6VTV1ZO-10">
          <mxGeometry relative="1" as="geometry">
            <Array as="points">
              <mxPoint x="450" y="340" />
              <mxPoint x="380" y="340" />
            </Array>
          </mxGeometry>
        </mxCell>
        <mxCell id="ID6AHChrOmCax6VTV1ZO-16" style="edgeStyle=orthogonalEdgeStyle;rounded=0;orthogonalLoop=1;jettySize=auto;html=1;" edge="1" parent="1" source="ID6AHChrOmCax6VTV1ZO-1" target="ID6AHChrOmCax6VTV1ZO-11">
          <mxGeometry relative="1" as="geometry">
            <Array as="points">
              <mxPoint x="450" y="340" />
              <mxPoint x="580" y="340" />
            </Array>
          </mxGeometry>
        </mxCell>
        <mxCell id="ID6AHChrOmCax6VTV1ZO-17" style="edgeStyle=orthogonalEdgeStyle;rounded=0;orthogonalLoop=1;jettySize=auto;html=1;" edge="1" parent="1" source="ID6AHChrOmCax6VTV1ZO-1" target="ID6AHChrOmCax6VTV1ZO-12">
          <mxGeometry relative="1" as="geometry">
            <Array as="points">
              <mxPoint x="450" y="340" />
              <mxPoint x="780" y="340" />
            </Array>
          </mxGeometry>
        </mxCell>
        <mxCell id="ID6AHChrOmCax6VTV1ZO-18" style="edgeStyle=orthogonalEdgeStyle;rounded=0;orthogonalLoop=1;jettySize=auto;html=1;entryX=0.5;entryY=0;entryDx=0;entryDy=0;" edge="1" parent="1" source="ID6AHChrOmCax6VTV1ZO-1" target="ID6AHChrOmCax6VTV1ZO-13">
          <mxGeometry relative="1" as="geometry">
            <Array as="points">
              <mxPoint x="450" y="340" />
              <mxPoint x="980" y="340" />
            </Array>
          </mxGeometry>
        </mxCell>
        <mxCell id="ID6AHChrOmCax6VTV1ZO-19" style="edgeStyle=orthogonalEdgeStyle;rounded=0;orthogonalLoop=1;jettySize=auto;html=1;entryX=0.5;entryY=0;entryDx=0;entryDy=0;" edge="1" parent="1" source="ID6AHChrOmCax6VTV1ZO-1" target="ID6AHChrOmCax6VTV1ZO-14">
          <mxGeometry relative="1" as="geometry">
            <Array as="points">
              <mxPoint x="450" y="340" />
              <mxPoint x="1210" y="340" />
            </Array>
          </mxGeometry>
        </mxCell>
        <mxCell id="ID6AHChrOmCax6VTV1ZO-1" value="Cluster Controller" style="rounded=1;whiteSpace=wrap;html=1;" vertex="1" parent="1">
          <mxGeometry x="390" y="240" width="120" height="60" as="geometry" />
        </mxCell>
        <mxCell id="ID6AHChrOmCax6VTV1ZO-3" style="edgeStyle=orthogonalEdgeStyle;rounded=0;orthogonalLoop=1;jettySize=auto;html=1;" edge="1" parent="1" source="ID6AHChrOmCax6VTV1ZO-2" target="ID6AHChrOmCax6VTV1ZO-1">
          <mxGeometry relative="1" as="geometry" />
        </mxCell>
        <mxCell id="ID6AHChrOmCax6VTV1ZO-2" value="Cluster CR" style="rounded=0;whiteSpace=wrap;html=1;" vertex="1" parent="1">
          <mxGeometry x="390" y="100" width="120" height="60" as="geometry" />
        </mxCell>
        <mxCell id="ID6AHChrOmCax6VTV1ZO-4" value="ServiceAccount CR&lt;br&gt;(k8s)" style="rounded=0;whiteSpace=wrap;html=1;" vertex="1" parent="1">
          <mxGeometry x="-140" y="440" width="120" height="60" as="geometry" />
        </mxCell>
        <mxCell id="ID6AHChrOmCax6VTV1ZO-5" value="Role&lt;br&gt;(k8s)" style="rounded=0;whiteSpace=wrap;html=1;" vertex="1" parent="1">
          <mxGeometry x="20" y="440" width="120" height="60" as="geometry" />
        </mxCell>
        <mxCell id="ID6AHChrOmCax6VTV1ZO-6" value="RoleBinding&lt;br&gt;(k8s)" style="rounded=0;whiteSpace=wrap;html=1;" vertex="1" parent="1">
          <mxGeometry x="170" y="440" width="120" height="60" as="geometry" />
        </mxCell>
        <mxCell id="ID6AHChrOmCax6VTV1ZO-25" style="edgeStyle=orthogonalEdgeStyle;rounded=0;orthogonalLoop=1;jettySize=auto;html=1;entryX=0.5;entryY=0;entryDx=0;entryDy=0;" edge="1" parent="1" source="ID6AHChrOmCax6VTV1ZO-10" target="ID6AHChrOmCax6VTV1ZO-20">
          <mxGeometry relative="1" as="geometry" />
        </mxCell>
        <mxCell id="ID6AHChrOmCax6VTV1ZO-10" value="Kernel CR" style="rounded=0;whiteSpace=wrap;html=1;" vertex="1" parent="1">
          <mxGeometry x="320" y="440" width="120" height="60" as="geometry" />
        </mxCell>
        <mxCell id="ID6AHChrOmCax6VTV1ZO-26" style="edgeStyle=orthogonalEdgeStyle;rounded=0;orthogonalLoop=1;jettySize=auto;html=1;" edge="1" parent="1" source="ID6AHChrOmCax6VTV1ZO-11" target="ID6AHChrOmCax6VTV1ZO-21">
          <mxGeometry relative="1" as="geometry" />
        </mxCell>
        <mxCell id="ID6AHChrOmCax6VTV1ZO-11" value="Engine CR" style="rounded=0;whiteSpace=wrap;html=1;" vertex="1" parent="1">
          <mxGeometry x="520" y="440" width="120" height="60" as="geometry" />
        </mxCell>
        <mxCell id="ID6AHChrOmCax6VTV1ZO-27" style="edgeStyle=orthogonalEdgeStyle;rounded=0;orthogonalLoop=1;jettySize=auto;html=1;entryX=0.5;entryY=0;entryDx=0;entryDy=0;" edge="1" parent="1" source="ID6AHChrOmCax6VTV1ZO-12" target="ID6AHChrOmCax6VTV1ZO-22">
          <mxGeometry relative="1" as="geometry" />
        </mxCell>
        <mxCell id="ID6AHChrOmCax6VTV1ZO-12" value="Journal CR" style="rounded=0;whiteSpace=wrap;html=1;" vertex="1" parent="1">
          <mxGeometry x="720" y="440" width="120" height="60" as="geometry" />
        </mxCell>
        <mxCell id="ID6AHChrOmCax6VTV1ZO-28" style="edgeStyle=orthogonalEdgeStyle;rounded=0;orthogonalLoop=1;jettySize=auto;html=1;" edge="1" parent="1" source="ID6AHChrOmCax6VTV1ZO-13" target="ID6AHChrOmCax6VTV1ZO-23">
          <mxGeometry relative="1" as="geometry" />
        </mxCell>
        <mxCell id="ID6AHChrOmCax6VTV1ZO-13" value="Storage CR" style="rounded=0;whiteSpace=wrap;html=1;" vertex="1" parent="1">
          <mxGeometry x="920" y="440" width="120" height="60" as="geometry" />
        </mxCell>
        <mxCell id="ID6AHChrOmCax6VTV1ZO-29" style="edgeStyle=orthogonalEdgeStyle;rounded=0;orthogonalLoop=1;jettySize=auto;html=1;entryX=0.5;entryY=0;entryDx=0;entryDy=0;" edge="1" parent="1" source="ID6AHChrOmCax6VTV1ZO-14" target="ID6AHChrOmCax6VTV1ZO-24">
          <mxGeometry relative="1" as="geometry" />
        </mxCell>
        <mxCell id="ID6AHChrOmCax6VTV1ZO-14" value="Background CR" style="rounded=0;whiteSpace=wrap;html=1;" vertex="1" parent="1">
          <mxGeometry x="1150" y="440" width="120" height="60" as="geometry" />
        </mxCell>
        <mxCell id="ID6AHChrOmCax6VTV1ZO-41" style="edgeStyle=orthogonalEdgeStyle;rounded=0;orthogonalLoop=1;jettySize=auto;html=1;exitX=0.5;exitY=1;exitDx=0;exitDy=0;entryX=0.5;entryY=0;entryDx=0;entryDy=0;" edge="1" parent="1" source="ID6AHChrOmCax6VTV1ZO-20" target="ID6AHChrOmCax6VTV1ZO-30">
          <mxGeometry relative="1" as="geometry" />
        </mxCell>
        <mxCell id="ID6AHChrOmCax6VTV1ZO-42" style="edgeStyle=orthogonalEdgeStyle;rounded=0;orthogonalLoop=1;jettySize=auto;html=1;" edge="1" parent="1" source="ID6AHChrOmCax6VTV1ZO-20" target="ID6AHChrOmCax6VTV1ZO-31">
          <mxGeometry relative="1" as="geometry" />
        </mxCell>
        <mxCell id="ID6AHChrOmCax6VTV1ZO-20" value="Kernel Controller" style="rounded=1;whiteSpace=wrap;html=1;" vertex="1" parent="1">
          <mxGeometry x="320" y="570" width="120" height="60" as="geometry" />
        </mxCell>
        <mxCell id="ID6AHChrOmCax6VTV1ZO-43" style="edgeStyle=orthogonalEdgeStyle;rounded=0;orthogonalLoop=1;jettySize=auto;html=1;entryX=0.5;entryY=0;entryDx=0;entryDy=0;" edge="1" parent="1" source="ID6AHChrOmCax6VTV1ZO-21" target="ID6AHChrOmCax6VTV1ZO-35">
          <mxGeometry relative="1" as="geometry" />
        </mxCell>
        <mxCell id="ID6AHChrOmCax6VTV1ZO-44" style="edgeStyle=orthogonalEdgeStyle;rounded=0;orthogonalLoop=1;jettySize=auto;html=1;entryX=0.5;entryY=0;entryDx=0;entryDy=0;" edge="1" parent="1" source="ID6AHChrOmCax6VTV1ZO-21" target="ID6AHChrOmCax6VTV1ZO-36">
          <mxGeometry relative="1" as="geometry" />
        </mxCell>
        <mxCell id="ID6AHChrOmCax6VTV1ZO-21" value="Engine Controller" style="rounded=1;whiteSpace=wrap;html=1;" vertex="1" parent="1">
          <mxGeometry x="520" y="570" width="120" height="60" as="geometry" />
        </mxCell>
        <mxCell id="ID6AHChrOmCax6VTV1ZO-45" style="edgeStyle=orthogonalEdgeStyle;rounded=0;orthogonalLoop=1;jettySize=auto;html=1;entryX=0.5;entryY=0;entryDx=0;entryDy=0;" edge="1" parent="1" source="ID6AHChrOmCax6VTV1ZO-22" target="ID6AHChrOmCax6VTV1ZO-37">
          <mxGeometry relative="1" as="geometry" />
        </mxCell>
        <mxCell id="ID6AHChrOmCax6VTV1ZO-47" style="edgeStyle=orthogonalEdgeStyle;rounded=0;orthogonalLoop=1;jettySize=auto;html=1;" edge="1" parent="1" source="ID6AHChrOmCax6VTV1ZO-22" target="ID6AHChrOmCax6VTV1ZO-38">
          <mxGeometry relative="1" as="geometry" />
        </mxCell>
        <mxCell id="ID6AHChrOmCax6VTV1ZO-22" value="Journal Controller" style="rounded=1;whiteSpace=wrap;html=1;" vertex="1" parent="1">
          <mxGeometry x="720" y="570" width="120" height="60" as="geometry" />
        </mxCell>
        <mxCell id="ID6AHChrOmCax6VTV1ZO-48" style="edgeStyle=orthogonalEdgeStyle;rounded=0;orthogonalLoop=1;jettySize=auto;html=1;entryX=0.5;entryY=0;entryDx=0;entryDy=0;" edge="1" parent="1" source="ID6AHChrOmCax6VTV1ZO-23" target="ID6AHChrOmCax6VTV1ZO-39">
          <mxGeometry relative="1" as="geometry" />
        </mxCell>
        <mxCell id="ID6AHChrOmCax6VTV1ZO-49" style="edgeStyle=orthogonalEdgeStyle;rounded=0;orthogonalLoop=1;jettySize=auto;html=1;entryX=0.5;entryY=0;entryDx=0;entryDy=0;" edge="1" parent="1" source="ID6AHChrOmCax6VTV1ZO-23" target="ID6AHChrOmCax6VTV1ZO-40">
          <mxGeometry relative="1" as="geometry" />
        </mxCell>
        <mxCell id="ID6AHChrOmCax6VTV1ZO-23" value="Storage Controller" style="rounded=1;whiteSpace=wrap;html=1;" vertex="1" parent="1">
          <mxGeometry x="920" y="570" width="120" height="60" as="geometry" />
        </mxCell>
        <mxCell id="ID6AHChrOmCax6VTV1ZO-52" style="edgeStyle=orthogonalEdgeStyle;rounded=0;orthogonalLoop=1;jettySize=auto;html=1;entryX=0.5;entryY=0;entryDx=0;entryDy=0;" edge="1" parent="1" source="ID6AHChrOmCax6VTV1ZO-24" target="ID6AHChrOmCax6VTV1ZO-50">
          <mxGeometry relative="1" as="geometry" />
        </mxCell>
        <mxCell id="ID6AHChrOmCax6VTV1ZO-53" style="edgeStyle=orthogonalEdgeStyle;rounded=0;orthogonalLoop=1;jettySize=auto;html=1;" edge="1" parent="1" source="ID6AHChrOmCax6VTV1ZO-24" target="ID6AHChrOmCax6VTV1ZO-51">
          <mxGeometry relative="1" as="geometry" />
        </mxCell>
        <mxCell id="ID6AHChrOmCax6VTV1ZO-24" value="Background Controller" style="rounded=1;whiteSpace=wrap;html=1;" vertex="1" parent="1">
          <mxGeometry x="1150" y="570" width="120" height="60" as="geometry" />
        </mxCell>
        <mxCell id="ID6AHChrOmCax6VTV1ZO-30" value="Statefulset&lt;br&gt;(k8s)" style="rounded=0;whiteSpace=wrap;html=1;" vertex="1" parent="1">
          <mxGeometry x="292.5" y="690" width="80" height="50" as="geometry" />
        </mxCell>
        <mxCell id="ID6AHChrOmCax6VTV1ZO-31" value="Service&lt;br&gt;(k8s)" style="rounded=0;whiteSpace=wrap;html=1;" vertex="1" parent="1">
          <mxGeometry x="382.5" y="690" width="85" height="50" as="geometry" />
        </mxCell>
        <mxCell id="ID6AHChrOmCax6VTV1ZO-35" value="Statefulset&lt;br&gt;(k8s)" style="rounded=0;whiteSpace=wrap;html=1;" vertex="1" parent="1">
          <mxGeometry x="500" y="690" width="80" height="50" as="geometry" />
        </mxCell>
        <mxCell id="ID6AHChrOmCax6VTV1ZO-36" value="Service&lt;br&gt;(k8s)" style="rounded=0;whiteSpace=wrap;html=1;" vertex="1" parent="1">
          <mxGeometry x="590" y="690" width="85" height="50" as="geometry" />
        </mxCell>
        <mxCell id="ID6AHChrOmCax6VTV1ZO-37" value="Statefulset&lt;br&gt;(k8s)" style="rounded=0;whiteSpace=wrap;html=1;" vertex="1" parent="1">
          <mxGeometry x="700" y="690" width="80" height="50" as="geometry" />
        </mxCell>
        <mxCell id="ID6AHChrOmCax6VTV1ZO-38" value="Service&lt;br&gt;(k8s)" style="rounded=0;whiteSpace=wrap;html=1;" vertex="1" parent="1">
          <mxGeometry x="790" y="690" width="85" height="50" as="geometry" />
        </mxCell>
        <mxCell id="ID6AHChrOmCax6VTV1ZO-39" value="Statefulset&lt;br&gt;(k8s)" style="rounded=0;whiteSpace=wrap;html=1;" vertex="1" parent="1">
          <mxGeometry x="910" y="690" width="80" height="50" as="geometry" />
        </mxCell>
        <mxCell id="ID6AHChrOmCax6VTV1ZO-40" value="Service&lt;br&gt;(k8s)" style="rounded=0;whiteSpace=wrap;html=1;" vertex="1" parent="1">
          <mxGeometry x="1000" y="690" width="85" height="50" as="geometry" />
        </mxCell>
        <mxCell id="ID6AHChrOmCax6VTV1ZO-50" value="Statefulset&lt;br&gt;(k8s)" style="rounded=0;whiteSpace=wrap;html=1;" vertex="1" parent="1">
          <mxGeometry x="1122.5" y="690" width="80" height="50" as="geometry" />
        </mxCell>
        <mxCell id="ID6AHChrOmCax6VTV1ZO-51" value="Service&lt;br&gt;(k8s)" style="rounded=0;whiteSpace=wrap;html=1;" vertex="1" parent="1">
          <mxGeometry x="1212.5" y="690" width="85" height="50" as="geometry" />
        </mxCell>
      </root>
    </mxGraphModel>
  </diagram>
</mxfile>
